# Blender v3.0.1 OBJ File: ''
# www.blender.org
o Cube_Cube.001
v -0.850497 -0.850497 -1.000000
v -0.850497 -1.000000 -0.850497
v -1.000000 -0.850497 -0.850497
v -0.850497 -0.925150 -0.980027
v -0.925150 -0.850497 -0.980027
v -0.921991 -0.921991 -0.960626
v -0.925150 -0.980027 -0.850497
v -0.850497 -0.980027 -0.925150
v -0.921991 -0.960626 -0.921991
v -0.980027 -0.850497 -0.925150
v -0.980027 -0.925150 -0.850497
v -0.960626 -0.921991 -0.921991
v -0.850497 -1.000000 0.850497
v -0.850497 -0.850497 1.000000
v -1.000000 -0.850497 0.850497
v -0.850497 -0.980027 0.925150
v -0.925150 -0.980027 0.850497
v -0.921991 -0.960626 0.921991
v -0.925150 -0.850497 0.980027
v -0.850497 -0.925150 0.980027
v -0.921991 -0.921991 0.960626
v -0.980027 -0.925150 0.850497
v -0.980027 -0.850497 0.925150
v -0.960626 -0.921991 0.921991
v -0.850497 0.850497 -1.000000
v -1.000000 0.850497 -0.850497
v -0.850497 1.000000 -0.850497
v -0.925150 0.850497 -0.980027
v -0.850497 0.925150 -0.980027
v -0.921991 0.921991 -0.960626
v -0.980027 0.925150 -0.850497
v -0.980027 0.850497 -0.925150
v -0.960626 0.921991 -0.921991
v -0.850497 0.980027 -0.925150
v -0.925150 0.980027 -0.850497
v -0.921991 0.960626 -0.921991
v -0.850497 0.850497 1.000000
v -0.850497 1.000000 0.850497
v -1.000000 0.850497 0.850497
v -0.850497 0.925150 0.980027
v -0.925150 0.850497 0.980027
v -0.921991 0.921991 0.960626
v -0.925150 0.980027 0.850497
v -0.850497 0.980027 0.925150
v -0.921991 0.960626 0.921991
v -0.980027 0.850497 0.925150
v -0.980027 0.925150 0.850497
v -0.960626 0.921991 0.921991
v 0.850497 -0.850497 -1.000000
v 1.000000 -0.850497 -0.850497
v 0.850497 -1.000000 -0.850497
v 0.925150 -0.850497 -0.980027
v 0.850497 -0.925150 -0.980027
v 0.921991 -0.921991 -0.960626
v 0.980027 -0.925150 -0.850497
v 0.980027 -0.850497 -0.925150
v 0.960626 -0.921991 -0.921991
v 0.850497 -0.980027 -0.925150
v 0.925150 -0.980027 -0.850497
v 0.921991 -0.960626 -0.921991
v 0.850497 -0.850497 1.000000
v 0.850497 -1.000000 0.850497
v 1.000000 -0.850497 0.850497
v 0.850497 -0.925150 0.980027
v 0.925150 -0.850497 0.980027
v 0.921991 -0.921991 0.960626
v 0.925150 -0.980027 0.850497
v 0.850497 -0.980027 0.925150
v 0.921991 -0.960626 0.921991
v 0.980027 -0.850497 0.925150
v 0.980027 -0.925150 0.850497
v 0.960626 -0.921991 0.921991
v 0.850497 0.850497 -1.000000
v 0.850497 1.000000 -0.850497
v 1.000000 0.850497 -0.850497
v 0.850497 0.925150 -0.980027
v 0.925150 0.850497 -0.980027
v 0.921991 0.921991 -0.960626
v 0.925150 0.980027 -0.850497
v 0.850497 0.980027 -0.925150
v 0.921991 0.960626 -0.921991
v 0.980027 0.850497 -0.925150
v 0.980027 0.925150 -0.850497
v 0.960626 0.921991 -0.921991
v 0.850497 0.850497 1.000000
v 1.000000 0.850497 0.850497
v 0.850497 1.000000 0.850497
v 0.925150 0.850497 0.980027
v 0.850497 0.925150 0.980027
v 0.921991 0.921991 0.960626
v 0.980027 0.925150 0.850497
v 0.980027 0.850497 0.925150
v 0.960626 0.921991 0.921991
v 0.850497 0.980027 0.925150
v 0.925150 0.980027 0.850497
v 0.921991 0.960626 0.921991
vn 0.0000 -1.0000 0.0000
vn 1.0000 0.0000 0.0000
vn 0.0000 0.0000 1.0000
vn -1.0000 0.0000 0.0000
vn 0.0000 1.0000 0.0000
vn -0.2502 -0.2502 -0.9353
vn -0.2178 -0.6901 -0.6901
vn -0.2502 -0.9353 -0.2502
vn -0.6901 -0.6901 -0.2178
vn -0.9353 -0.2502 -0.2502
vn -0.6901 -0.2178 -0.6901
vn -0.5774 -0.5774 -0.5774
vn -0.2502 -0.9353 0.2502
vn -0.2178 -0.6901 0.6901
vn -0.2502 -0.2502 0.9353
vn -0.6901 -0.2178 0.6901
vn -0.9353 -0.2502 0.2502
vn -0.6901 -0.6901 0.2178
vn -0.5774 -0.5774 0.5774
vn -0.2502 0.2502 -0.9353
vn -0.6901 0.2178 -0.6901
vn -0.9353 0.2502 -0.2502
vn -0.6901 0.6901 -0.2178
vn -0.2502 0.9353 -0.2502
vn -0.2178 0.6901 -0.6901
vn -0.5774 0.5774 -0.5774
vn -0.2502 0.2502 0.9353
vn -0.2178 0.6901 0.6901
vn -0.2502 0.9353 0.2502
vn -0.6901 0.6901 0.2178
vn -0.9353 0.2502 0.2502
vn -0.6901 0.2178 0.6901
vn -0.5774 0.5774 0.5774
vn 0.2502 -0.2502 -0.9353
vn 0.6901 -0.2178 -0.6901
vn 0.9353 -0.2502 -0.2502
vn 0.6901 -0.6901 -0.2178
vn 0.2502 -0.9353 -0.2502
vn 0.2178 -0.6901 -0.6901
vn 0.5774 -0.5774 -0.5774
vn 0.2502 -0.2502 0.9353
vn 0.2178 -0.6901 0.6901
vn 0.2502 -0.9353 0.2502
vn 0.6901 -0.6901 0.2178
vn 0.9353 -0.2502 0.2502
vn 0.6901 -0.2178 0.6901
vn 0.5774 -0.5774 0.5774
vn 0.2502 0.2502 -0.9353
vn 0.2178 0.6901 -0.6901
vn 0.2502 0.9353 -0.2502
vn 0.6901 0.6901 -0.2178
vn 0.9353 0.2502 -0.2502
vn 0.6901 0.2178 -0.6901
vn 0.5774 0.5774 -0.5774
vn 0.2502 0.2502 0.9353
vn 0.6901 0.2178 0.6901
vn 0.9353 0.2502 0.2502
vn 0.6901 0.6901 0.2178
vn 0.2502 0.9353 0.2502
vn 0.2178 0.6901 0.6901
vn 0.5774 0.5774 0.5774
vn -0.2585 0.0000 -0.9660
vn -0.7071 0.0000 -0.7071
vn -0.9660 0.0000 -0.2585
vn -0.2585 -0.9660 0.0000
vn -0.7071 -0.7071 0.0000
vn -0.9660 -0.2585 0.0000
vn -0.2585 0.0000 0.9660
vn -0.7071 0.0000 0.7071
vn -0.9660 0.0000 0.2585
vn -0.2585 0.9660 0.0000
vn -0.7071 0.7071 0.0000
vn -0.9660 0.2585 0.0000
vn 0.0000 0.2585 -0.9660
vn 0.0000 0.7071 -0.7071
vn 0.0000 0.9660 -0.2585
vn 0.0000 0.2585 0.9660
vn 0.0000 0.7071 0.7071
vn 0.0000 0.9660 0.2585
vn 0.9660 0.2585 0.0000
vn 0.7071 0.7071 0.0000
vn 0.2585 0.9660 0.0000
vn 0.2585 0.0000 -0.9660
vn 0.7071 0.0000 -0.7071
vn 0.9660 0.0000 -0.2585
vn 0.2585 0.0000 0.9660
vn 0.7071 0.0000 0.7071
vn 0.9660 0.0000 0.2585
vn 0.2585 -0.9660 0.0000
vn 0.7071 -0.7071 0.0000
vn 0.9660 -0.2585 0.0000
vn 0.0000 -0.2585 -0.9660
vn 0.0000 -0.7071 -0.7071
vn 0.0000 -0.9660 -0.2585
vn 0.0000 -0.2585 0.9660
vn 0.0000 -0.7071 0.7071
vn 0.0000 -0.9660 0.2585
vn 0.0000 0.0000 -1.0000
vn -0.2635 -0.2635 -0.9280
vn -0.2635 -0.9280 -0.2635
vn -0.9280 -0.2635 -0.2635
vn -0.2635 -0.9280 0.2635
vn -0.2635 -0.2635 0.9280
vn -0.9280 -0.2635 0.2635
vn -0.2635 0.2635 -0.9280
vn -0.9280 0.2635 -0.2635
vn -0.2635 0.9280 -0.2635
vn -0.2635 0.2635 0.9280
vn -0.2635 0.9280 0.2635
vn -0.9280 0.2635 0.2635
vn 0.2635 -0.2635 -0.9280
vn 0.9280 -0.2635 -0.2635
vn 0.2635 -0.9280 -0.2635
vn 0.2635 -0.2635 0.9280
vn 0.2635 -0.9280 0.2635
vn 0.9280 -0.2635 0.2635
vn 0.2635 0.2635 -0.9280
vn 0.2635 0.9280 -0.2635
vn 0.9280 0.2635 -0.2635
vn 0.2635 0.2635 0.9280
vn 0.9280 0.2635 0.2635
vn 0.2635 0.9280 0.2635
s off
f 62//1 2//1 51//1
f 86//2 50//2 75//2
f 37//3 61//3 85//3
f 15//4 26//4 3//4
f 38//5 74//5 27//5
f 4//6 5//6 1//6
f 8//7 6//7 4//7
f 7//8 8//8 2//8
f 11//9 9//9 7//9
f 10//10 11//10 3//10
f 10//11 6//11 12//11
f 6//12 9//12 12//12
f 16//13 17//13 13//13
f 16//14 21//14 18//14
f 19//15 20//15 14//15
f 23//16 21//16 19//16
f 22//17 23//17 15//17
f 17//18 24//18 22//18
f 18//19 21//19 24//19
f 28//20 29//20 25//20
f 32//21 30//21 28//21
f 31//22 32//22 26//22
f 35//23 33//23 31//23
f 34//24 35//24 27//24
f 34//25 30//25 36//25
f 30//26 33//26 36//26
f 40//27 41//27 37//27
f 44//28 42//28 40//28
f 43//29 44//29 38//29
f 47//30 45//30 43//30
f 46//31 47//31 39//31
f 46//32 42//32 48//32
f 42//33 45//33 48//33
f 52//34 53//34 49//34
f 56//35 54//35 52//35
f 55//36 56//36 50//36
f 59//37 57//37 55//37
f 58//38 59//38 51//38
f 58//39 54//39 60//39
f 54//40 57//40 60//40
f 64//41 65//41 61//41
f 68//42 66//42 64//42
f 67//43 68//43 62//43
f 71//44 69//44 67//44
f 70//45 71//45 63//45
f 70//46 66//46 72//46
f 66//47 69//47 72//47
f 76//48 77//48 73//48
f 80//49 78//49 76//49
f 79//50 80//50 74//50
f 83//51 81//51 79//51
f 82//52 83//52 75//52
f 82//53 78//53 84//53
f 78//54 81//54 84//54
f 88//55 89//55 85//55
f 92//56 90//56 88//56
f 91//57 92//57 86//57
f 95//58 93//58 91//58
f 94//59 95//59 87//59
f 94//60 90//60 96//60
f 90//61 93//61 96//61
f 1//62 28//62 25//62
f 5//63 32//63 28//63
f 10//64 26//64 32//64
f 13//65 7//65 2//65
f 17//66 11//66 7//66
f 22//67 3//67 11//67
f 37//68 19//68 14//68
f 41//69 23//69 19//69
f 46//70 15//70 23//70
f 27//71 43//71 38//71
f 35//72 47//72 43//72
f 31//73 39//73 47//73
f 25//74 76//74 73//74
f 29//75 80//75 76//75
f 34//76 74//76 80//76
f 85//77 40//77 37//77
f 89//78 44//78 40//78
f 94//79 38//79 44//79
f 75//80 91//80 86//80
f 83//81 95//81 91//81
f 79//82 87//82 95//82
f 73//83 52//83 49//83
f 77//84 56//84 52//84
f 82//85 50//85 56//85
f 61//86 88//86 85//86
f 65//87 92//87 88//87
f 70//88 86//88 92//88
f 51//89 67//89 62//89
f 59//90 71//90 67//90
f 55//91 63//91 71//91
f 49//92 4//92 1//92
f 53//93 8//93 4//93
f 58//94 2//94 8//94
f 14//95 64//95 61//95
f 20//96 68//96 64//96
f 16//97 62//97 68//97
f 73//98 1//98 25//98
f 62//1 13//1 2//1
f 86//2 63//2 50//2
f 37//3 14//3 61//3
f 15//4 39//4 26//4
f 38//5 87//5 74//5
f 4//99 6//99 5//99
f 8//7 9//7 6//7
f 7//100 9//100 8//100
f 11//9 12//9 9//9
f 10//101 12//101 11//101
f 10//11 5//11 6//11
f 16//102 18//102 17//102
f 16//14 20//14 21//14
f 19//103 21//103 20//103
f 23//16 24//16 21//16
f 22//104 24//104 23//104
f 17//18 18//18 24//18
f 28//105 30//105 29//105
f 32//21 33//21 30//21
f 31//106 33//106 32//106
f 35//23 36//23 33//23
f 34//107 36//107 35//107
f 34//25 29//25 30//25
f 40//108 42//108 41//108
f 44//28 45//28 42//28
f 43//109 45//109 44//109
f 47//30 48//30 45//30
f 46//110 48//110 47//110
f 46//32 41//32 42//32
f 52//111 54//111 53//111
f 56//35 57//35 54//35
f 55//112 57//112 56//112
f 59//37 60//37 57//37
f 58//113 60//113 59//113
f 58//39 53//39 54//39
f 64//114 66//114 65//114
f 68//42 69//42 66//42
f 67//115 69//115 68//115
f 71//44 72//44 69//44
f 70//116 72//116 71//116
f 70//46 65//46 66//46
f 76//117 78//117 77//117
f 80//49 81//49 78//49
f 79//118 81//118 80//118
f 83//51 84//51 81//51
f 82//119 84//119 83//119
f 82//53 77//53 78//53
f 88//120 90//120 89//120
f 92//56 93//56 90//56
f 91//121 93//121 92//121
f 95//58 96//58 93//58
f 94//122 96//122 95//122
f 94//60 89//60 90//60
f 1//62 5//62 28//62
f 5//63 10//63 32//63
f 10//64 3//64 26//64
f 13//65 17//65 7//65
f 17//66 22//66 11//66
f 22//67 15//67 3//67
f 37//68 41//68 19//68
f 41//69 46//69 23//69
f 46//70 39//70 15//70
f 27//71 35//71 43//71
f 35//72 31//72 47//72
f 31//73 26//73 39//73
f 25//74 29//74 76//74
f 29//75 34//75 80//75
f 34//76 27//76 74//76
f 85//77 89//77 40//77
f 89//78 94//78 44//78
f 94//79 87//79 38//79
f 75//80 83//80 91//80
f 83//81 79//81 95//81
f 79//82 74//82 87//82
f 73//83 77//83 52//83
f 77//84 82//84 56//84
f 82//85 75//85 50//85
f 61//86 65//86 88//86
f 65//87 70//87 92//87
f 70//88 63//88 86//88
f 51//89 59//89 67//89
f 59//90 55//90 71//90
f 55//91 50//91 63//91
f 49//92 53//92 4//92
f 53//93 58//93 8//93
f 58//94 51//94 2//94
f 14//95 20//95 64//95
f 20//96 16//96 68//96
f 16//97 13//97 62//97
f 73//98 49//98 1//98
